Normalized EMG Linear Envelopes
nRows=214
nColumns=4

endheader
time	 med_gas_r	  soleus_r	 tib_ant_r	
3.22681	  0.009838	  0.011236	  0.035516	
3.26008	  0.009856	  0.011445	  0.035582	
3.29335	  0.009911	  0.011644	  0.034959	
3.32661	  0.009949	  0.011806	  0.033544	
3.35988	  0.009949	  0.011910	  0.031942	
3.39315	  0.009930	  0.011961	  0.030732	
3.42641	  0.009903	  0.011947	  0.030053	
3.45968	  0.009856	  0.011861	  0.029876	
3.49294	  0.009797	  0.011736	  0.030308	
3.52621	  0.009732	  0.011636	  0.031264	
3.55948	  0.009654	  0.011612	  0.032413	
3.59274	  0.009543	  0.011685	  0.033518	
3.62601	  0.009407	  0.011854	  0.034366	
3.65927	  0.009258	  0.012086	  0.034659	
3.69254	  0.009109	  0.012344	  0.034493	
3.72581	  0.008990	  0.012574	  0.034246	
3.75907	  0.008917	  0.012725	  0.034059	
3.79234	  0.008914	  0.012774	  0.034126	
3.8256	  0.008992	  0.012710	  0.034660	
3.85887	  0.009145	  0.012523	  0.035505	
3.89214	  0.009340	  0.012265	  0.036117	
3.9254	  0.009536	  0.012034	  0.035890	
3.95867	  0.009723	  0.011910	  0.034996	
3.99194	  0.009917	  0.011936	  0.033721	
4.0252	  0.010106	  0.012100	  0.032222	
4.05847	  0.010280	  0.012316	  0.030815	
4.09173	  0.010405	  0.012472	  0.029698	
4.125	  0.010473	  0.012531	  0.028814	
4.15827	  0.010526	  0.012497	  0.027945	
4.19153	  0.010600	  0.012423	  0.027065	
4.2248	  0.010687	  0.012379	  0.026337	
4.25806	  0.010777	  0.012378	  0.025889	
4.29133	  0.010894	  0.012390	  0.025728	
4.3246	  0.011055	  0.012368	  0.026005	
4.35786	  0.011243	  0.012295	  0.026766	
4.39113	  0.011431	  0.012187	  0.027820	
4.4244	  0.011633	  0.012052	  0.028892	
4.45766	  0.011857	  0.011885	  0.029728	
4.49093	  0.012075	  0.011714	  0.030218	
4.52419	  0.012216	  0.011547	  0.030631	
4.55746	  0.012249	  0.011381	  0.031386	
4.59073	  0.012223	  0.011234	  0.032612	
4.62399	  0.012172	  0.011126	  0.034348	
4.65726	  0.012111	  0.011079	  0.036754	
4.69052	  0.012033	  0.011105	  0.039750	
4.72379	  0.011942	  0.011163	  0.043126	
4.75706	  0.011852	  0.011225	  0.046714	
4.79032	  0.011767	  0.011305	  0.050075	
4.82359	  0.011699	  0.011413	  0.052916	
4.85685	  0.011657	  0.011554	  0.054971	
4.89012	  0.011610	  0.011746	  0.055734	
4.92339	  0.011532	  0.011986	  0.054739	
4.95665	  0.011444	  0.012246	  0.052521	
4.98992	  0.011328	  0.012456	  0.049816	
5.02319	  0.011161	  0.012560	  0.047094	
5.05645	  0.010949	  0.012525	  0.044714	
5.08972	  0.010676	  0.012340	  0.042762	
5.12298	  0.010366	  0.012044	  0.041061	
5.15625	  0.010120	  0.011706	  0.039363	
5.18952	  0.010042	  0.011377	  0.038088	
5.22278	  0.010199	  0.011097	  0.038294	
5.25605	  0.010614	  0.010951	  0.041194	
5.28931	  0.011263	  0.010969	  0.047692	
5.32258	  0.012135	  0.011136	  0.058261	
5.35585	  0.013184	  0.011439	  0.072753	
5.38911	  0.014361	  0.011858	  0.090326	
5.42238	  0.015632	  0.012353	  0.109556	
5.45565	  0.016983	  0.012953	  0.128389	
5.48891	  0.018411	  0.013725	  0.145811	
5.52218	  0.019921	  0.014791	  0.162080	
5.55544	  0.021623	  0.016279	  0.177218	
5.58871	  0.023728	  0.018269	  0.191380	
5.62198	  0.026438	  0.020830	  0.207439	
5.65524	  0.029725	  0.023952	  0.228405	
5.68851	  0.033354	  0.027664	  0.256409	
5.72177	  0.037078	  0.032204	  0.292086	
5.75504	  0.040743	  0.037859	  0.334896	
5.78831	  0.044376	  0.044750	  0.385649	
5.82157	  0.048066	  0.052838	  0.444551	
5.85484	  0.051956	  0.062010	  0.510421	
5.8881	  0.056108	  0.071812	  0.579369	
5.92137	  0.060455	  0.081350	  0.645981	
5.95464	  0.064820	  0.089963	  0.704827	
5.9879	  0.068736	  0.096813	  0.751008	
6.02117	  0.071979	  0.101291	  0.785190	
6.05444	  0.074477	  0.103494	  0.811122	
6.0877	  0.076309	  0.104200	  0.831177	
6.12097	  0.077776	  0.104548	  0.844345	
6.15423	  0.079119	  0.105879	  0.848501	
6.1875	  0.080751	  0.109031	  0.845299	
6.22077	  0.083207	  0.113653	  0.835896	
6.25403	  0.086673	  0.118760	  0.822249	
6.2873	  0.090610	  0.123129	  0.806630	
6.32056	  0.094451	  0.126389	  0.795427	
6.35383	  0.098170	  0.128955	  0.791102	
6.3871	  0.101756	  0.130909	  0.792069	
6.42036	  0.105033	  0.132013	  0.794130	
6.45363	  0.108024	  0.132178	  0.792328	
6.4869	  0.110583	  0.131554	  0.783294	
6.52016	  0.112819	  0.131490	  0.764589	
6.55343	  0.114535	  0.132865	  0.734938	
6.58669	  0.115123	  0.135051	  0.700447	
6.61996	  0.113798	  0.136721	  0.667086	
6.65323	  0.110728	  0.137460	  0.635177	
6.68649	  0.105980	  0.136604	  0.603418	
6.71976	  0.099600	  0.133699	  0.570602	
6.75302	  0.091863	  0.128764	  0.536065	
6.78629	  0.084100	  0.122993	  0.503352	
6.81956	  0.077841	  0.118038	  0.479697	
6.85282	  0.073551	  0.114609	  0.466544	
6.88609	  0.070806	  0.112395	  0.463095	
6.91935	  0.068746	  0.110537	  0.466863	
6.95262	  0.066590	  0.108675	  0.473067	
6.98589	  0.064208	  0.107051	  0.476461	
7.01915	  0.062333	  0.106207	  0.474825	
7.05242	  0.061380	  0.106495	  0.467228	
7.08569	  0.061011	  0.107439	  0.449929	
7.11895	  0.060726	  0.107517	  0.426793	
7.15222	  0.060067	  0.105253	  0.400887	
7.18548	  0.058677	  0.100634	  0.374513	
7.21875	  0.056767	  0.094725	  0.353176	
7.25202	  0.054294	  0.088161	  0.340120	
7.28528	  0.051355	  0.081311	  0.336002	
7.31855	  0.048955	  0.075481	  0.341030	
7.35181	  0.047528	  0.071382	  0.351052	
7.38508	  0.047098	  0.068960	  0.358284	
7.41835	  0.047356	  0.067605	  0.356366	
7.45161	  0.047923	  0.066520	  0.345358	
7.48488	  0.048419	  0.065204	  0.329293	
7.51815	  0.048522	  0.063326	  0.313200	
7.55141	  0.048307	  0.061001	  0.301283	
7.58468	  0.048045	  0.058750	  0.296612	
7.61794	  0.047864	  0.057166	  0.300102	
7.65121	  0.048084	  0.056647	  0.311089	
7.68448	  0.048959	  0.057250	  0.327824	
7.71774	  0.050273	  0.058534	  0.347450	
7.75101	  0.051655	  0.059997	  0.368180	
7.78427	  0.052658	  0.061144	  0.389913	
7.81754	  0.052636	  0.061488	  0.410757	
7.85081	  0.051521	  0.060859	  0.428750	
7.88407	  0.049688	  0.059862	  0.441077	
7.91734	  0.047339	  0.058803	  0.443343	
7.9506	  0.045223	  0.058047	  0.436320	
7.98387	  0.044124	  0.057855	  0.424216	
8.01714	  0.044468	  0.058413	  0.410559	
8.0504	  0.046030	  0.060102	  0.398536	
8.08367	  0.048115	  0.063020	  0.389509	
8.11694	  0.050208	  0.066892	  0.383275	
8.1502	  0.052243	  0.071284	  0.380465	
8.18347	  0.053868	  0.075006	  0.379691	
8.21673	  0.054783	  0.077035	  0.380535	
8.25	  0.055182	  0.077617	  0.385029	
8.28327	  0.055228	  0.077201	  0.393154	
8.31653	  0.054788	  0.075645	  0.403213	
8.3498	  0.054124	  0.073719	  0.415142	
8.38306	  0.053395	  0.072043	  0.426772	
8.41633	  0.052485	  0.070676	  0.437330	
8.4496	  0.051503	  0.069630	  0.446106	
8.48286	  0.050881	  0.069034	  0.453176	
8.51613	  0.050894	  0.068721	  0.458359	
8.5494	  0.051281	  0.067968	  0.460170	
8.58266	  0.051643	  0.066500	  0.457743	
8.61593	  0.051769	  0.064725	  0.451033	
8.64919	  0.051835	  0.062934	  0.438510	
8.68246	  0.051993	  0.061323	  0.420397	
8.71573	  0.052036	  0.059864	  0.399527	
8.74899	  0.051732	  0.058402	  0.379156	
8.78226	  0.051063	  0.056845	  0.362281	
8.81552	  0.049927	  0.054921	  0.350629	
8.84879	  0.048580	  0.052883	  0.343132	
8.88206	  0.047413	  0.051120	  0.338368	
8.91532	  0.046552	  0.049980	  0.335340	
8.94859	  0.046053	  0.049514	  0.333332	
8.98185	  0.045910	  0.049670	  0.332153	
9.01512	  0.046098	  0.050392	  0.332324	
9.04839	  0.046533	  0.051550	  0.332995	
9.08165	  0.047154	  0.052839	  0.332904	
9.11492	  0.047719	  0.053863	  0.329698	
9.14819	  0.048046	  0.054129	  0.324663	
9.18145	  0.047985	  0.053246	  0.320468	
9.21472	  0.047600	  0.051486	  0.318859	
9.24798	  0.046809	  0.049290	  0.320611	
9.28125	  0.045787	  0.047365	  0.325898	
9.31452	  0.045042	  0.046344	  0.334309	
9.34778	  0.044896	  0.046363	  0.343236	
9.38105	  0.045529	  0.047323	  0.351195	
9.41431	  0.047054	  0.049291	  0.359934	
9.44758	  0.049313	  0.052168	  0.370742	
9.48085	  0.051969	  0.055563	  0.386404	
9.51411	  0.054409	  0.058813	  0.408269	
9.54738	  0.056610	  0.062006	  0.437380	
9.58065	  0.058594	  0.065249	  0.471235	
9.61391	  0.060222	  0.068370	  0.504167	
9.64718	  0.061496	  0.071280	  0.531396	
9.68044	  0.062655	  0.073983	  0.550397	
9.71371	  0.063986	  0.076536	  0.558592	
9.74698	  0.065602	  0.078701	  0.553887	
9.78024	  0.067207	  0.080206	  0.533801	
9.81351	  0.068587	  0.081494	  0.503703	
9.84677	  0.069352	  0.082892	  0.472033	
9.88004	  0.068994	  0.083623	  0.444780	
9.91331	  0.067271	  0.082771	  0.427559	
9.94657	  0.064777	  0.080768	  0.423690	
9.97984	  0.062139	  0.078098	  0.432873	
10.0131	  0.060028	  0.075153	  0.452053	
10.0464	  0.059064	  0.072467	  0.474953	
10.0796	  0.059355	  0.070221	  0.493782	
10.1129	  0.060486	  0.068438	  0.503130	
10.1462	  0.061713	  0.066861	  0.499722	
10.1794	  0.062358	  0.065039	  0.484668	
10.2127	  0.062174	  0.063064	  0.465889	
10.246	  0.060847	  0.061258	  0.449445	
10.2792	  0.058411	  0.059746	  0.437422	
10.3125	  0.055205	  0.058437	  0.428498	
